<svg xmlns="http://www.w3.org/2000/svg" xmlns:xlink="http://www.w3.org/1999/xlink" version="1.1" x="0px" y="0px" viewBox="0 0 64 80" style="enable-background:new 0 0 64 64;" xml:space="preserve"><g><path d="M19,19h2.375c3.468,0,6.577,1.534,8.709,3.95C26.839,11.206,15.806,6.865,11.031,5.512l7.802,13.477   C18.888,18.99,18.946,19,19,19z"/><path d="M37,28.413v2.435c1.98-0.452,4.192-0.716,6.592-0.799c4.591-5.362,7.89-14.53,9.02-17.972   c-1.441,0.161-2.822,0.586-4.129,1.248C46.277,17.427,42.721,22.637,37,28.413z"/><path d="M33,30.625v1.467c0.638-0.253,1.303-0.489,2-0.702v-3.804l0.293-0.293c8.49-8.49,12.149-15.768,13.679-19.871   c-3.266,3.116-6.916,5.802-10.865,7.996l-2.111,1.172c-0.077,3.04-1.339,5.934-3.485,8.079C32.82,26.325,33,28.092,33,30V30.625z"/><path d="M29,33.626v0.504c0.621-0.404,1.293-0.783,2-1.142v-2.363C31,25.318,26.682,21,21.375,21H19   c-5.522,0-12.586-4.552-15.845-6.885c1.614,10.685,15.402,13.731,21.538,14.56C27.148,29.006,29,31.135,29,33.626z"/><path d="M14,31.055V40c0,4.625,3.506,8.446,8,8.945V40C22,35.375,18.494,31.554,14,31.055z"/><path d="M59.395,28.75C56.348,30.724,50.697,32,45,32c-14.485,0-21,7.602-21,13v5v1v10h2V50c0-9.215,11.45-12.361,21.551-15.138   c6.843-1.881,13.311-3.658,13.447-6.762C60.422,28.217,59.879,28.437,59.395,28.75z"/></g></svg>